<?xml version="1.0" encoding="UTF-8"?>
<svg xmlns="http://www.w3.org/2000/svg" xmlns:xlink="http://www.w3.org/1999/xlink" width="60pt" height="60pt" viewBox="0 0 60 60" version="1.1">
<g id="surface1">
<path style=" stroke:none;fill-rule:nonzero;fill:rgb(98.039216%,61.176471%,11.764706%);fill-opacity:1;" d="M 29.671875 0 C 22.992188 0.0429688 16.394531 2.421875 11.207031 6.609375 L 16.875 13.1875 C 21.65625 9.414062 28.097656 7.875 34.074219 9.0625 C 37.359375 9.695312 40.484375 11.136719 43.121094 13.1875 L 48.789062 6.609375 C 43.425781 2.28125 36.578125 -0.101562 29.671875 0 Z M 29.671875 0 "/>
<path style=" stroke:none;fill-rule:nonzero;fill:rgb(29.019608%,29.803922%,30.588235%);fill-opacity:1;" d="M 9.363281 8.226562 C 3.390625 13.835938 -0.109375 21.988281 0.00390625 30.210938 C 0.0078125 38.75 3.902344 47.136719 10.367188 52.683594 C 16.347656 57.910156 24.476562 60.574219 32.414062 59.898438 C 41.015625 59.257812 49.179688 54.664062 54.226562 47.6875 C 59.136719 41.054688 61.0625 32.304688 59.433594 24.195312 C 58.234375 17.984375 54.976562 12.230469 50.347656 7.953125 L 44.683594 14.53125 C 49.246094 18.835938 51.742188 25.1875 51.269531 31.457031 C 51.066406 34.558594 50.164062 37.625 48.640625 40.351562 L 37.09375 29.199219 L 31.265625 16.640625 L 31.257812 35.65625 L 42.925781 46.949219 C 37.726562 50.988281 30.589844 52.328125 24.269531 50.539062 C 21.695312 49.820312 19.257812 48.617188 17.136719 47 L 28.886719 35.65625 C 28.867188 29.472656 28.957031 22.800781 28.886719 16.617188 L 23.050781 29.199219 L 11.40625 40.445312 C 7.851562 34.242188 7.769531 26.222656 11.1875 19.949219 C 12.257812 17.941406 13.671875 16.109375 15.3125 14.53125 L 9.648438 7.953125 C 9.550781 8.042969 9.457031 8.136719 9.363281 8.226562 Z M 9.363281 8.226562 "/>
</g>
</svg>
